<svg xmlns="http://www.w3.org/2000/svg" width="46" height="46" viewBox="0 0 46 46"><g transform="translate(-314 -930)"><path d="M28.367,22.733A5.367,5.367,0,1,0,23,17.367,5.373,5.373,0,0,0,28.367,22.733Zm0-9.2a3.833,3.833,0,1,1-3.833,3.833A3.838,3.838,0,0,1,28.367,13.533Z" transform="translate(308.633 927.2)"/><path d="M25.348,41.98,37.11,24.993c4.411-5.881,3.774-15.548-1.365-20.686a14.7,14.7,0,0,0-20.792,0C9.813,9.445,9.176,19.111,13.569,24.97ZM16.036,5.39a13.169,13.169,0,0,1,18.624,0C39.3,10.028,39.87,18.759,35.866,24.1L25.348,39.286,14.814,24.073C10.827,18.759,11.4,10.028,16.036,5.39Z" transform="translate(311.516 930)"/><path d="M32.29,43.005a.767.767,0,1,0-.179,1.523c8.062.949,12.356,3.507,12.356,4.989C44.467,51.6,36.3,54.5,23,54.5S1.533,51.6,1.533,49.516c0-1.482,4.294-4.04,12.356-4.989a.767.767,0,1,0-.179-1.523C5.638,43.956,0,46.633,0,49.516c0,3.238,7.9,6.517,23,6.517s23-3.278,23-6.517C46,46.633,40.362,43.956,32.29,43.005Z" transform="translate(314 919.967)"/></g></svg>