<?xml version="1.0" encoding="UTF-8" standalone="no"?>
<svg
   xmlns:dc="http://purl.org/dc/elements/1.1/"
   xmlns:cc="http://creativecommons.org/ns#"
   xmlns:rdf="http://www.w3.org/1999/02/22-rdf-syntax-ns#"
   xmlns:svg="http://www.w3.org/2000/svg"
   xmlns="http://www.w3.org/2000/svg"
   xmlns:sodipodi="http://sodipodi.sourceforge.net/DTD/sodipodi-0.dtd"
   xmlns:inkscape="http://www.inkscape.org/namespaces/inkscape"
   width="226"
   height="34"
   viewBox="0 0 226 34"
   version="1.1"
   id="svg8"
   sodipodi:docname="logo.svg"
   inkscape:version="0.92.3 (2405546, 2018-03-11)">
  <metadata
     id="metadata14">
    <rdf:RDF>
      <cc:Work
         rdf:about="">
        <dc:format>image/svg+xml</dc:format>
        <dc:type
           rdf:resource="http://purl.org/dc/dcmitype/StillImage" />
      </cc:Work>
    </rdf:RDF>
  </metadata>
  <defs
     id="defs12" />
  <sodipodi:namedview
     pagecolor="#ffffff"
     bordercolor="#666666"
     borderopacity="1"
     objecttolerance="10"
     gridtolerance="10"
     guidetolerance="10"
     inkscape:pageopacity="0"
     inkscape:pageshadow="2"
     inkscape:window-width="1549"
     inkscape:window-height="718"
     id="namedview10"
     showgrid="false"
     inkscape:zoom="1.5663717"
     inkscape:cx="113"
     inkscape:cy="17"
     inkscape:window-x="0"
     inkscape:window-y="39"
     inkscape:window-maximized="0"
     inkscape:current-layer="text6" />
  <g
     aria-label="científicabalber"
     transform="translate(113 28)"
     style="font-weight:700;font-size:30px;font-family:Ubuntu-Bold, Ubuntu;fill:#1a8fb8"
     id="text6">
    <path
       d="m -111.36,-7.89 q 0,-1.71 0.54,-3.21 0.57,-1.53 1.62,-2.64 1.05,-1.14 2.55,-1.8 1.5,-0.66 3.42,-0.66 1.26,0 2.31,0.24 1.050001,0.21 2.040001,0.63 l -0.93,3.57 Q -100.44,-12 -101.19,-12.18 q -0.75,-0.18 -1.68,-0.18 -1.98,0 -2.97,1.23 -0.96,1.23 -0.96,3.24 0,2.13 0.9,3.3 0.93,1.17 3.21,1.17 0.81,0 1.74,-0.15 0.93,-0.15 1.710001,-0.48 l 0.63,3.66 q -0.78,0.33 -1.950001,0.57 -1.17,0.24 -2.58,0.24 -2.16,0 -3.72,-0.63 -1.56,-0.66 -2.58,-1.77 -0.99,-1.11 -1.47,-2.61 -0.45,-1.53 -0.45,-3.3 z"
       style=""
       id="path16" />
    <path
       d="m -91.139999,0 h -4.47 v -15.78 h 4.47 z m 0.42,-20.34 q 0,1.23 -0.81,1.95 -0.78,0.69 -1.86,0.69 -1.08,0 -1.89,-0.69 -0.78,-0.72 -0.78,-1.95 0,-1.23 0.78,-1.92 0.81,-0.72 1.89,-0.72 1.08,0 1.86,0.72 0.81,0.69 0.81,1.92 z"
       style=""
       id="path18" />
    <path
       d="m -87.688124,-7.77 q 0,-2.1 0.63,-3.66 0.66,-1.59 1.71,-2.64 1.05,-1.05 2.4,-1.59 1.38,-0.54 2.82,-0.54 3.36,0 5.31,2.07 1.95,2.04 1.95,6.03 0,0.39 -0.03,0.87 -0.03,0.45 -0.06,0.81 h -10.14 q 0.15,1.38 1.29,2.19 1.14,0.81 3.06,0.81 1.23,0 2.4,-0.21 1.2,-0.24 1.95,-0.57 l 0.6,3.63 q -0.36,0.18 -0.96,0.36 -0.6,0.18 -1.35,0.3 -0.72,0.15 -1.56,0.24 -0.84,0.09 -1.68,0.09 -2.13,0 -3.72,-0.63 -1.56,-0.63 -2.61,-1.71 -1.02,-1.11 -1.53,-2.61 -0.48,-1.5 -0.48,-3.24 z m 10.5,-1.71 q -0.03,-0.57 -0.21,-1.11 -0.15,-0.54 -0.51,-0.96 -0.33,-0.42 -0.87,-0.69 -0.51,-0.27 -1.29,-0.27 -0.75,0 -1.29,0.27 -0.54,0.24 -0.9,0.66 -0.36,0.42 -0.57,0.99 -0.18,0.54 -0.27,1.11 z"
       style=""
       id="path20" />
    <path
       d="m -69.418593,-15.24 q 1.14,-0.33 2.94,-0.6 1.8,-0.3 3.78,-0.3 2.01,0 3.33,0.54 1.35,0.51 2.13,1.47 0.78,0.96 1.11,2.28 0.33,1.32 0.33,2.94 V 0 h -4.47 v -8.37 q 0,-2.16 -0.57,-3.06 -0.57,-0.9 -2.13,-0.9 -0.48,0 -1.02,0.06 -0.54,0.03 -0.96,0.09 V 0 h -4.47 z"
       style=""
       id="path22" />
    <path
       d="m -51.87328,-19.71 4.47,-0.72 v 4.65 h 5.37 v 3.72 h -5.37 v 5.55 q 0,1.41 0.48,2.25 0.51,0.84 2.01,0.84 0.72,0 1.47,-0.12 0.78,-0.15 1.41,-0.39 l 0.63,3.48 q -0.81,0.33 -1.8,0.57 -0.99,0.24 -2.43,0.24 -1.83,0 -3.03,-0.48 -1.2,-0.51 -1.92,-1.38 -0.72,-0.9 -1.02,-2.16 -0.27,-1.26 -0.27,-2.79 z"
       style=""
       id="path24" />
    <path
       d="m -33.952499,0 h -4.47 v -15.78 h 4.47 z m 1.65,-21.45 -4.95,4.17 -2.04,-1.83 4.26,-4.86 z"
       style=""
       id="path26" />
    <path
       d="m -22.910624,-23.28 q 1.26,0 2.07,0.21 0.84,0.21 1.41,0.45 l -0.78,3.51 q -0.48,-0.21 -1.08,-0.3 -0.57,-0.09 -1.17,-0.09 -0.81,0 -1.38,0.24 -0.54,0.21 -0.87,0.6 -0.3,0.39 -0.45,0.93 -0.12,0.54 -0.12,1.17 v 0.78 h 5.52 v 3.72 h -5.52 V 0 h -4.47 v -16.62 q 0,-3.06 1.71,-4.86 1.74,-1.8 5.13,-1.8 z m 10.2,23.28 h -4.47 v -15.78 h 4.47 z m 0.42,-20.34 q 0,1.23 -0.81,1.95 -0.78,0.69 -1.86,0.69 -1.08,0 -1.89,-0.69 -0.78,-0.72 -0.78,-1.95 0,-1.23 0.78,-1.92 0.81,-0.72 1.89,-0.72 1.08,0 1.86,0.72 0.81,0.69 0.81,1.92 z"
       style=""
       id="path28" />
    <path
       d="m -9.2310928,-7.89 q 0,-1.71 0.54,-3.21 0.57,-1.53 1.62,-2.64 1.05,-1.14 2.55,-1.8 1.5,-0.66 3.42,-0.66 1.25999997,0 2.31,0.24 1.05,0.21 2.04,0.63 l -0.93,3.57 q -0.63,-0.24 -1.38000003,-0.42 -0.75,-0.18 -1.68,-0.18 -1.97999997,0 -2.96999997,1.23 -0.96,1.23 -0.96,3.24 0,2.13 0.9,3.3 0.93,1.17 3.20999997,1.17 0.81,0 1.74000003,-0.15 0.93,-0.15 1.71,-0.48 l 0.63,3.66 q -0.78,0.33 -1.95,0.57 -1.17000003,0.24 -2.58,0.24 -2.16,0 -3.72,-0.63 -1.56,-0.66 -2.58,-1.77 -0.99,-1.11 -1.47,-2.61 -0.45,-1.53 -0.45,-3.3 z"
       style=""
       id="path30" />
    <path
       d="m 11.787188,-3.12 q 0.66,0 1.26,-0.03 0.6,-0.03 0.96,-0.09 v -3.39 q -0.27,-0.06 -0.81,-0.12 -0.54,-0.06 -0.99,-0.06 -0.63,0 -1.2,0.09 -0.54,0.06 -0.96,0.27 -0.4199996,0.21 -0.6599996,0.57 -0.24,0.36 -0.24,0.9 0,1.05 0.69,1.47 0.7199996,0.39 1.9499996,0.39 z m -0.36,-13.08 q 1.98,0 3.3,0.45 1.32,0.45 2.1,1.29 0.81,0.84 1.14,2.04 0.33,1.2 0.33,2.67 v 9.3 q -0.96,0.21 -2.67,0.48 -1.71,0.3 -4.14,0.3 -1.5299996,0 -2.7899996,-0.27 -1.23,-0.27 -2.13,-0.87 -0.9,-0.63 -1.38,-1.62 -0.48,-0.99 -0.48,-2.43 0,-1.38 0.54,-2.34 0.57,-0.96 1.5,-1.53 0.93,-0.57 2.13,-0.81 1.1999996,-0.27 2.4899996,-0.27 0.87,0 1.53,0.09 0.69,0.06 1.11,0.18 v -0.42 q 0,-1.14 -0.69,-1.83 -0.69,-0.69 -2.4,-0.69 -1.1399996,0 -2.2499996,0.18 -1.11,0.15 -1.92,0.45 l -0.57,-3.6 q 0.39,-0.12 0.96,-0.24 0.6,-0.15 1.29,-0.24 0.69,-0.12 1.44,-0.18 0.7799996,-0.09 1.5599996,-0.09 z"
       style=""
       id="path32" />
    <path
       d="m 32.44922,-8.01 q 0,-4.32 -3.18,-4.32 -0.69,0 -1.38,0.18 -0.66,0.18 -1.08,0.45 v 8.13 q 0.33,0.06 0.84,0.12 0.51,0.03 1.11,0.03 1.83,0 2.76,-1.26 0.93,-1.26 0.93,-3.33 z m 4.56,0.12 q 0,1.89 -0.57,3.42 -0.54,1.53 -1.59,2.61 -1.05,1.08 -2.58,1.68 -1.53,0.57 -3.48,0.57 -0.81,0 -1.71,-0.09 -0.87,-0.06 -1.74,-0.18 -0.84,-0.12 -1.62,-0.27 -0.78,-0.18 -1.38,-0.36 v -22.05 l 4.47,-0.72 v 7.86 q 0.75,-0.33 1.56,-0.51 0.81,-0.18 1.74,-0.18 1.68,0 2.97,0.6 1.29,0.57 2.16,1.65 0.87,1.08 1.32,2.61 0.45,1.5 0.45,3.36 z"
       style="fill:#165a84"
       id="path34" />
    <path
       d="m 46.474688,-3.12 q 0.66,0 1.26,-0.03 0.6,-0.03 0.96,-0.09 v -3.39 q -0.27,-0.06 -0.81,-0.12 -0.54,-0.06 -0.99,-0.06 -0.63,0 -1.2,0.09 -0.54,0.06 -0.96,0.27 -0.42,0.21 -0.66,0.57 -0.24,0.36 -0.24,0.9 0,1.05 0.69,1.47 0.72,0.39 1.95,0.39 z m -0.36,-13.08 q 1.98,0 3.3,0.45 1.32,0.45 2.1,1.29 0.81,0.84 1.14,2.04 0.33,1.2 0.33,2.67 v 9.3 q -0.96,0.21 -2.67,0.48 -1.71,0.3 -4.14,0.3 -1.53,0 -2.79,-0.27 -1.23,-0.27 -2.13,-0.87 -0.9,-0.63 -1.38,-1.62 -0.48,-0.99 -0.48,-2.43 0,-1.38 0.54,-2.34 0.57,-0.96 1.5,-1.53 0.93,-0.57 2.13,-0.81 1.2,-0.27 2.49,-0.27 0.87,0 1.53,0.09 0.69,0.06 1.11,0.18 v -0.42 q 0,-1.14 -0.69,-1.83 -0.69,-0.69 -2.4,-0.69 -1.14,0 -2.25,0.18 -1.11,0.15 -1.92,0.45 l -0.57,-3.6 q 0.39,-0.12 0.96,-0.24 0.6,-0.15 1.29,-0.24 0.69,-0.12 1.44,-0.18 0.78,-0.09 1.56,-0.09 z"
       style="fill:#165a84"
       id="path36" />
    <path
       d="m 63.32672,0.3 q -1.95,-0.03 -3.18,-0.42 -1.2,-0.39 -1.92,-1.08 -0.69,-0.72 -0.96,-1.71 -0.24,-1.02 -0.24,-2.28 v -17.37 l 4.47,-0.72 v 17.19 q 0,0.6 0.09,1.08 0.09,0.48 0.33,0.81 0.27,0.33 0.75,0.54 0.48,0.21 1.29,0.27 z"
       style="fill:#165a84"
       id="path38" />
    <path
       d="m 76.628907,-8.01 q 0,-4.32 -3.18,-4.32 -0.69,0 -1.38,0.18 -0.66,0.18 -1.08,0.45 v 8.13 q 0.33,0.06 0.84,0.12 0.51,0.03 1.11,0.03 1.83,0 2.76,-1.26 0.93,-1.26 0.93,-3.33 z m 4.56,0.12 q 0,1.89 -0.57,3.42 -0.54,1.53 -1.59,2.61 -1.05,1.08 -2.58,1.68 -1.53,0.57 -3.48,0.57 -0.81,0 -1.71,-0.09 -0.87,-0.06 -1.74,-0.18 -0.84,-0.12 -1.62,-0.27 -0.78,-0.18 -1.38,-0.36 v -22.05 l 4.47,-0.72 v 7.86 q 0.75,-0.33 1.56,-0.51 0.81,-0.18 1.74,-0.18 1.68,0 2.97,0.6 1.29,0.57 2.16,1.65 0.87,1.08 1.32,2.61 0.45,1.5 0.45,3.36 z"
       style="fill:#165a84"
       id="path40" />
    <path
       d="m 83.874376,-7.77 q 0,-2.1 0.63,-3.66 0.66,-1.59 1.71,-2.64 1.05,-1.05 2.4,-1.59 1.38,-0.54 2.82,-0.54 3.36,0 5.31,2.07 1.95,2.04 1.95,6.03 0,0.39 -0.03,0.87 -0.03,0.45 -0.06,0.81 h -10.14 q 0.15,1.38 1.29,2.19 1.14,0.81 3.06,0.81 1.23,0 2.4,-0.21 1.2,-0.24 1.95,-0.57 l 0.6,3.63 q -0.36,0.18 -0.96,0.36 -0.6,0.18 -1.35,0.3 -0.72,0.15 -1.56,0.24 -0.84,0.09 -1.68,0.09 -2.13,0 -3.72,-0.63 -1.56,-0.63 -2.61,-1.71 -1.02,-1.11 -1.53,-2.61 -0.48,-1.5 -0.48,-3.24 z m 10.5,-1.71 q -0.03,-0.57 -0.21,-1.11 -0.15,-0.54 -0.51,-0.96 -0.33,-0.42 -0.87,-0.69 -0.51,-0.27 -1.29,-0.27 -0.75,0 -1.29,0.27 -0.54,0.24 -0.9,0.66 -0.36,0.42 -0.57,0.99 -0.18,0.54 -0.27,1.11 z"
       style="fill:#165a84"
       id="path42" />
    <path
       d="m 111.65391,-11.82 q -0.6,-0.15 -1.41,-0.3 -0.81,-0.18 -1.74,-0.18 -0.42,0 -1.02,0.09 -0.57,0.06 -0.87,0.15 V 0 h -4.47 v -14.94 q 1.2,-0.42 2.82,-0.78 1.65,-0.39 3.66,-0.39 0.36,0 0.87,0.06 0.51,0.03 1.02,0.12 0.51,0.06 1.02,0.18 0.51,0.09 0.87,0.24 z"
       style="fill:#165a84"
       id="path44" />
  </g>
</svg>
