<svg xmlns="http://www.w3.org/2000/svg" width="46" height="46" viewBox="0 0 46 46"><path d="M36.971,46A19.756,19.756,0,0,1,30.2,44.561C24.63,42.46,18.567,38.307,13.13,32.87S3.539,21.367,1.436,15.794C-.475,10.727-.479,6.568,1.425,4.665c.274-.274.552-.568.84-.871C4,1.966,5.966-.09,8.569,0c1.793.074,3.531,1.188,5.31,3.4,5.257,6.539,2.887,8.869.144,11.57l-.484.48c-.449.449-1.3,2.527,6.591,10.414a43.737,43.737,0,0,0,6.525,5.6c1.1.718,3.08,1.8,3.891.993l.487-.492c2.7-2.737,5.028-5.1,11.562.153,2.214,1.779,3.326,3.515,3.4,5.312.107,2.6-1.965,4.569-3.794,6.3-.3.288-.6.566-.87.839A6.027,6.027,0,0,1,36.971,46ZM8.383,1.547c-1.849,0-3.518,1.758-5,3.313-.3.313-.585.616-.868.9C1.1,7.176,1.244,10.9,2.884,15.249c2.027,5.372,6.054,11.242,11.341,16.529s11.152,9.311,16.526,11.336c4.349,1.643,8.073,1.782,9.489.367.283-.283.586-.571.9-.866,1.589-1.51,3.391-3.221,3.313-5.12-.054-1.3-1-2.708-2.824-4.17-5.445-4.379-6.967-2.833-9.492-.272l-.5.5c-1.207,1.208-3.167.941-5.828-.789a45.178,45.178,0,0,1-6.775-5.8c-6.546-6.545-8.64-10.55-6.591-12.6l.494-.487c2.567-2.525,4.116-4.049-.265-9.5C11.21,2.554,9.808,1.6,8.5,1.549,8.463,1.547,8.423,1.547,8.383,1.547Z" transform="translate(0 0)"/></svg>